#N canvas 249 137 975 513 10;
#N canvas 0 22 450 300 gemwin 0;
#X obj 132 136 gemwin;
#X obj 67 89 outlet;
#X obj 67 10 inlet;
#X obj 67 41 route create;
#X msg 67 70 set destroy;
#X msg 142 68 set create;
#X msg 132 112 create \, 1;
#X msg 198 112 destroy;
#X connect 2 0 3 0;
#X connect 3 0 4 0;
#X connect 3 0 6 0;
#X connect 3 1 5 0;
#X connect 3 1 7 0;
#X connect 4 0 1 0;
#X connect 5 0 1 0;
#X connect 6 0 0 0;
#X connect 7 0 0 0;
#X restore 21 66 pd gemwin;
#X msg 80 49 destroy;
#X text 16 12 Create window:;
#X obj 105 122 gemhead;
#X obj 161 77 bng 15 250 50 0 empty empty pix_load 20 8 0 8 -262144
-1 -1;
#X text 240 68 open an image;
#X text 238 85 (JPEG \, TIFF \, ..);
#X obj 196 288 pix_deinterlace;
#X msg 222 260 mode \$1;
#X obj 222 242 tgl 15 0 empty empty empty 0 -6 0 8 -262144 -1 -1 0
1;
#X obj 196 315 pix_texture;
#X msg 161 121 open \$1;
#X obj 161 98 openpanel;
#X obj 133 234 pix_buf;
#X obj 157 187 loadbang;
#X msg 157 209 auto 1;
#X obj 133 148 pix_image;
#X obj 196 339 rectangle 3.999 3;
#X obj 509 136 savepanel;
#X obj 381 92 bng 30 250 50 0 empty empty empty 0 -6 0 8 -262144 -1
-1;
#X obj 509 116 bng 15 250 50 0 empty empty empty 0 -6 0 8 -262144 -1
-1;
#X obj 381 164 symbol /processed;
#X obj 477 238 gemhead 99;
#X msg 498 280 file \$1;
#X msg 614 272 auto \$1;
#X obj 618 250 tgl 15 0 empty empty empty 17 7 0 10 -262144 -1 -1 0
1;
#X obj 477 313 pix_write;
#X obj 437 194 t b s;
#X connect 0 0 1 0;
#X connect 1 0 0 0;
#X connect 3 0 16 0;
#X connect 4 0 12 0;
#X connect 7 0 10 0;
#X connect 8 0 7 0;
#X connect 9 0 8 0;
#X connect 10 0 17 0;
#X connect 11 0 16 0;
#X connect 12 0 11 0;
#X connect 13 0 7 0;
#X connect 14 0 15 0;
#X connect 15 0 13 0;
#X connect 16 0 13 0;
#X connect 18 0 21 1;
#X connect 19 0 21 0;
#X connect 20 0 18 0;
#X connect 21 0 27 0;
#X connect 22 0 26 0;
#X connect 23 0 26 0;
#X connect 24 0 26 0;
#X connect 25 0 24 0;
#X connect 27 0 26 0;
#X connect 27 1 23 0;
