#N canvas 43 23 1420 719 10;
#X obj 926 245 unpackOSC;
#X obj 926 225 o.io.slipserial;
#X msg 686 618 close;
#X obj 926 204 packOSC;
#X msg 733 660 devices;
#X obj 1150 59 print;
#X msg 926 96 /;
#X obj 926 136 list trim;
#X obj 306 50 tgl 32 0 empty empty empty 0 0 0 12 -260097 -1 -1 0 1
;
#X obj 272 50 bng 32 250 50 0 empty empty bang_here 0 -8 0 12 -260097
-1 -1;
#X obj 926 183 spigot;
#X text 1186 53 connect this to objects for debugging \; (prints to
console window);
#X obj 562 466 tgl 20 0 empty empty Open/close_connection 30 10 0 18
-1 -1 -1 0 1;
#X obj 562 489 tgl 12 0 empty empty prints_to_console 20 6 0 12 -1
-1 -1 0 1;
#X obj 565 677 s operation;
#X obj 1013 204 r operation;
#X obj 882 187 r data;
#X obj 745 9 tgl 20 0 empty empty Communication_to_and_from_microcontroller
30 10 0 18 -1 -1 -1 0 1;
#X obj 272 86 s push;
#X obj 831 153 tgl 30 0 empty empty empty 0 0 0 12 -260097 -1 -1 0
1;
#X obj 831 64 bng 32 250 50 0 empty empty push_settings 0 -8 0 12 -260097
-1 -1;
#X obj 758 124 delay 200;
#X obj 831 31 r push;
#X obj 831 218 s pushback;
#X obj 315 86 r pushback;
#X obj 565 532 hradio 20 1 0 4 empty empty empty 0 -8 0 10 -260097
-1 -1 1;
#X obj 565 556 route 0 1 2 3;
#X msg 565 578 open 0;
#X msg 565 637 open 3;
#X msg 565 618 open 2;
#X msg 565 598 open 1;
#X msg 613 577 set open0;
#X msg 613 636 set open3;
#X msg 613 617 set open2;
#X msg 613 597 set open1;
#X obj 613 656 s atomopenport;
#X obj 130 90 r atomopenport;
#X symbolatom 3 107 10 0 0 0 - - -, f 10;
#X obj 565 511 r deviceopen;
#X obj 130 70 s deviceopen;
#X obj 3 85 hradio 20 1 0 4 empty empty open_channel 0 -8 0 12 -260097
-1 -1 1;
#X obj 4 14 tgl 20 0 empty empty Open/close_connection 30 10 0 18 -1
-1 -1 0 1;
#X obj 94 85 bng 20 250 50 0 empty empty close 0 -8 0 12 -260097 -1
-1;
#X obj 686 576 r close;
#X obj 208 70 s close;
#X obj 686 595 bng 20 250 50 0 empty empty empty 0 -8 0 12 -260097
-1 -1;
#X obj 733 637 bng 20 250 50 0 empty empty empty 0 -8 0 12 -260097
-1 -1;
#X obj 733 618 r devices;
#X obj 4 48 bng 20 250 50 0 empty empty devices_(prints_to_console)
0 -8 0 12 -260097 -1 -1;
#X obj 27 49 s devices;
#X obj 271 14 tgl 20 0 empty empty Transfer_Settings 30 10 0 18 -1
-1 -1 0 1;
#X obj 926 266 routeOSC /length;
#X obj 1019 287 routeOSC /interval;
#X obj 1126 217 s data;
#X floatatom 926 288 5 0 0 0 usec - -, f 5;
#X floatatom 1019 308 12 0 0 0 usec - -, f 12;
#X obj 966 52 r inValue;
#X obj 3 220 hradio 30 1 0 5 empty empty pulse_duration_in_microseconds
0 -10 0 14 -260097 -1 -1 0;
#X obj 926 116 pack s f f f f;
#X obj 986 72 r onoff;
#X obj 1007 92 r onoff;
#X floatatom 1124 330 5 0 0 0 - - -, f 5;
#X obj 1124 309 routeOSC /onoff;
#X floatatom 1211 352 5 0 0 0 - - -, f 5;
#X obj 1211 331 routeOSC /onoff1;
#X text 1125 198 first inLenght \, then inValue then onoff then onoff1
;
#X obj 3 168 tgl 32 0 empty empty strobing_on/off 0 -10 0 14 -260097
-1 -1 0 1;
#X floatatom 627 200 5 0 0 0 - - -, f 5;
#X obj 627 219 s onoff;
#X obj 37 184 tgl 16 0 empty empty empty 0 0 0 12 -260097 -1 -1 0 1
;
#X obj 4 128 tgl 20 0 empty empty control_the_strobe 30 10 0 18 -1
-1 -1 0 1;
#X obj 38 251 s inLength;
#X obj 700 182 loadbang;
#X obj 628 130 loadbang;
#X msg 628 151 0;
#X obj 4 -20 loadbang;
#X obj 2 282 hradio 15 1 0 6 empty empty confirmation_from_uC 0 -7
0 11 -262130 -1 -1 4;
#X obj 628 265 r length;
#X obj 926 307 s length;
#X obj 5 315 hsl 600 30 1 400 0 0 empty empty frames_per_sec -2 -8
0 14 -260097 -1 -1 0 1;
#X floatatom 2 347 12 0 0 1 input_by_keyboard_needs_'enter' - -, f
12;
#X obj 2 466 s framespersec;
#X obj 299 467 r framespersec;
#X obj -21 252 + 1;
#X obj 324 221 hradio 30 1 0 6 empty empty exposures_per_frame 0 -9
0 14 -260097 -1 -1 0;
#X obj 297 253 + 1;
#X obj 359 252 s flashesperframe;
#X msg 700 203 0;
#X obj 354 130 loadbang;
#X msg 324 130 0;
#X obj 5 377 hsl 600 15 1 400 0 0 empty empty confirmation_from_uC
-2 -8 0 11 -262130 -1 -1 0 1;
#X obj 501 360 r framespersecosc;
#X obj 1086 452 s framespersecosc;
#X obj 416 469 r flashesperframe;
#X obj 299 539 expr 1000000/$f1/$f2;
#X floatatom 299 558 20 0 0 0 - - -, f 20;
#X obj 299 576 int;
#X floatatom 299 596 20 0 0 0 - - -, f 20;
#X obj 299 614 s inValue;
#X obj 248 432 tgl 20 0 empty empty compute_inValue 30 10 0 18 -1 -1
-1 0 1;
#X obj 1056 381 r flashesperframe;
#X obj 1019 398 *;
#X floatatom 1086 434 12 0 0 0 - - -, f 12;
#X obj 1086 415 expr 1000000/$f1;
#X obj 1124 349 s onoffosc;
#X obj 627 167 r onoffosc;
#X floatatom 324 253 5 0 0 0 - - -, f 5;
#X floatatom 3 252 5 0 0 0 - - -, f 5;
#X floatatom 2 396 12 0 0 1 difference_is_rounding_mistakes - -, f
12;
#X floatatom 299 487 12 0 0 0 - - -, f 12;
#X floatatom 416 520 5 0 0 0 - - -, f 5;
#X floatatom 416 500 5 0 0 0 - - -, f 5;
#X obj 324 276 bang;
#X obj -90 298 loadbang;
#X msg -36 298 1;
#X obj 946 32 r inLength;
#X connect 0 0 51 0;
#X connect 1 0 0 0;
#X connect 2 0 14 0;
#X connect 3 0 1 0;
#X connect 4 0 14 0;
#X connect 6 0 58 0;
#X connect 7 0 10 0;
#X connect 7 0 5 0;
#X connect 9 0 18 0;
#X connect 10 0 3 0;
#X connect 12 0 13 0;
#X connect 15 0 1 1;
#X connect 16 0 3 0;
#X connect 19 0 10 1;
#X connect 19 0 23 0;
#X connect 20 0 19 0;
#X connect 20 0 21 0;
#X connect 20 0 6 0;
#X connect 21 0 19 0;
#X connect 22 0 20 0;
#X connect 24 0 8 0;
#X connect 25 0 26 0;
#X connect 26 0 27 0;
#X connect 26 0 31 0;
#X connect 26 1 30 0;
#X connect 26 1 34 0;
#X connect 26 2 29 0;
#X connect 26 2 33 0;
#X connect 26 3 28 0;
#X connect 26 3 32 0;
#X connect 27 0 14 0;
#X connect 28 0 14 0;
#X connect 29 0 14 0;
#X connect 30 0 14 0;
#X connect 31 0 35 0;
#X connect 32 0 35 0;
#X connect 33 0 35 0;
#X connect 34 0 35 0;
#X connect 36 0 37 0;
#X connect 38 0 25 0;
#X connect 40 0 39 0;
#X connect 42 0 44 0;
#X connect 43 0 45 0;
#X connect 45 0 2 0;
#X connect 46 0 4 0;
#X connect 47 0 46 0;
#X connect 48 0 49 0;
#X connect 51 0 54 0;
#X connect 51 1 52 0;
#X connect 52 0 55 0;
#X connect 52 1 62 0;
#X connect 54 0 78 0;
#X connect 55 0 101 0;
#X connect 56 0 58 2;
#X connect 57 0 83 0;
#X connect 58 0 7 0;
#X connect 59 0 58 3;
#X connect 60 0 58 4;
#X connect 61 0 104 0;
#X connect 62 0 61 0;
#X connect 62 1 64 0;
#X connect 64 0 63 0;
#X connect 66 0 67 0;
#X connect 67 0 68 0;
#X connect 72 0 87 0;
#X connect 73 0 74 0;
#X connect 74 0 66 0;
#X connect 75 0 48 0;
#X connect 77 0 76 0;
#X connect 79 0 80 0;
#X connect 80 0 81 0;
#X connect 82 0 109 0;
#X connect 83 0 107 0;
#X connect 84 0 85 0;
#X connect 85 0 106 0;
#X connect 87 0 57 0;
#X connect 88 0 89 0;
#X connect 89 0 84 0;
#X connect 90 0 108 0;
#X connect 91 0 90 0;
#X connect 93 0 111 0;
#X connect 94 0 95 0;
#X connect 95 0 96 0;
#X connect 96 0 97 0;
#X connect 97 0 98 0;
#X connect 100 0 101 1;
#X connect 101 0 103 0;
#X connect 102 0 92 0;
#X connect 103 0 102 0;
#X connect 105 0 69 0;
#X connect 106 0 86 0;
#X connect 106 0 112 0;
#X connect 107 0 71 0;
#X connect 109 0 94 0;
#X connect 110 0 94 1;
#X connect 111 0 110 0;
#X connect 112 0 80 0;
#X connect 113 0 114 0;
#X connect 114 0 79 0;
#X connect 115 0 58 1;
#X coords 0 0 620 425 620 425 1 0 0;
